<svg width="1420" height="21" viewBox="0 0 1420 21" fill="none" xmlns="http://www.w3.org/2000/svg">
<path d="M4.5 8H6.75L6.46875 10.25H4.5V17H1.58203V10.25H0V8H1.58203V6.48828C1.58203 5.50391 1.82812 4.76562 2.32031 4.27344C2.8125 3.75781 3.63281 3.5 4.78125 3.5H6.75V5.75H5.55469C5.10938 5.75 4.81641 5.82031 4.67578 5.96094C4.55859 6.10156 4.5 6.33594 4.5 6.66406V8Z" fill="#4BA1A7"/>
<path d="M89.5938 5.11719C89.1719 5.77344 88.6094 6.35937 87.9062 6.875V7.29688C87.9062 9.75781 87.0156 11.9961 85.2344 14.0117C83.4766 16.0039 81.1328 17 78.2031 17C76.3281 17 74.5938 16.4844 73 15.4531C73.375 15.5 73.6445 15.5234 73.8086 15.5234C75.3789 15.5234 76.7852 15.0312 78.0273 14.0469C77.3008 14.0234 76.6445 13.8008 76.0586 13.3789C75.4727 12.9336 75.0742 12.3711 74.8633 11.6914C75.1445 11.7383 75.3555 11.7617 75.4961 11.7617C75.7305 11.7617 76.0352 11.7148 76.4102 11.6211C75.6367 11.457 74.9805 11.0703 74.4414 10.4609C73.9258 9.82812 73.668 9.10156 73.668 8.28125V8.24609C74.1836 8.52734 74.6992 8.66797 75.2148 8.66797C74.207 8.01172 73.7031 7.0625 73.7031 5.82031C73.7031 5.23437 73.8555 4.67187 74.1602 4.13281C75.9648 6.35937 78.2969 7.54297 81.1562 7.68359C81.1094 7.51953 81.0859 7.26172 81.0859 6.91016C81.0859 5.94922 81.4141 5.14063 82.0703 4.48438C82.7266 3.82812 83.5352 3.5 84.4961 3.5C85.457 3.5 86.2773 3.86328 86.957 4.58984C87.6602 4.47266 88.3867 4.19141 89.1367 3.74609C88.9023 4.56641 88.3984 5.19922 87.625 5.64453C88.3516 5.57422 89.0078 5.39844 89.5938 5.11719Z" fill="#9FAAAB"/>
<path d="M174.41 3.5C174.715 3.5 174.973 3.60547 175.184 3.81641C175.395 4.00391 175.5 4.25 175.5 4.55469V15.8398C175.5 16.1445 175.395 16.4141 175.184 16.6484C174.973 16.8828 174.715 17 174.41 17H163.16C162.855 17 162.586 16.8828 162.352 16.6484C162.117 16.4141 162 16.1445 162 15.8398V4.55469C162 4.25 162.105 4.00391 162.316 3.81641C162.551 3.60547 162.832 3.5 163.16 3.5H174.41ZM166.184 14.75V8.73828H164.25V14.75H166.184ZM164.531 7.54297C164.719 7.73047 164.965 7.82422 165.27 7.82422C165.574 7.82422 165.82 7.73047 166.008 7.54297C166.219 7.33203 166.324 7.08594 166.324 6.80469C166.324 6.5 166.23 6.25391 166.043 6.06641C165.855 5.85547 165.609 5.75 165.305 5.75C165 5.75 164.742 5.85547 164.531 6.06641C164.344 6.25391 164.25 6.5 164.25 6.80469C164.25 7.08594 164.344 7.33203 164.531 7.54297ZM173.25 14.75V11.2344C173.25 10.3672 173.039 9.71094 172.617 9.26562C172.219 8.82031 171.691 8.59766 171.035 8.59766C170.332 8.59766 169.746 8.92578 169.277 9.58203V8.73828H167.344V14.75H169.277V11.3398C169.277 11.1055 169.301 10.9414 169.348 10.8477C169.535 10.3789 169.863 10.1445 170.332 10.1445C170.988 10.1445 171.316 10.5781 171.316 11.4453V14.75H173.25Z" fill="#9FAAAB"/>
<path d="M248.969 5.46875C250.281 4.15625 251.875 3.5 253.75 3.5C255.625 3.5 257.219 4.15625 258.531 5.46875C259.844 6.78125 260.5 8.375 260.5 10.25C260.5 12.125 259.844 13.7188 258.531 15.0312C257.219 16.3438 255.625 17 253.75 17C251.875 17 250.281 16.3438 248.969 15.0312C247.656 13.7188 247 12.125 247 10.25C247 8.375 247.656 6.78125 248.969 5.46875ZM258.039 6.59375C257.453 7.46094 256.457 8.21094 255.051 8.84375C255.191 9.14844 255.344 9.51172 255.508 9.93359C256.82 9.81641 258.109 9.79297 259.375 9.86328C259.305 8.62109 258.859 7.53125 258.039 6.59375ZM253.75 4.625C253.352 4.625 252.895 4.68359 252.379 4.80078C253.082 5.50391 253.809 6.52344 254.559 7.85938C255.824 7.34375 256.75 6.69922 257.336 5.92578C256.281 5.05859 255.086 4.625 253.75 4.625ZM251.219 5.25781C249.719 6.03125 248.746 7.23828 248.301 8.87891H249.18C250.703 8.87891 252.121 8.67969 253.434 8.28125C252.754 7.0625 252.016 6.05469 251.219 5.25781ZM248.125 9.96875V10.25C248.125 11.6797 248.594 12.9219 249.531 13.9766C250.422 12.3125 251.852 11.0703 253.82 10.25C253.938 10.2031 254.102 10.1562 254.312 10.1094C254.172 9.73438 254.055 9.45312 253.961 9.26562C252.555 9.71094 250.938 9.95703 249.109 10.0039C249.016 10.0039 248.852 10.0039 248.617 10.0039C248.383 9.98047 248.219 9.96875 248.125 9.96875ZM253.75 15.875C254.477 15.875 255.145 15.7578 255.754 15.5234C255.637 14.5391 255.461 13.6133 255.227 12.7461C255.133 12.3477 254.945 11.7734 254.664 11.0234C254.383 11.0938 254.184 11.1641 254.066 11.2344C252.309 12.0312 251.055 13.1797 250.305 14.6797C251.336 15.4766 252.484 15.875 253.75 15.875ZM256.773 14.9609C258.32 13.9531 259.176 12.5938 259.34 10.8828C257.957 10.7891 256.797 10.7891 255.859 10.8828C256.117 11.6094 256.258 12.0547 256.281 12.2188C256.492 13.0391 256.656 13.9531 256.773 14.9609Z" fill="#9FAAAB"/>
<path d="M354.895 6.48828C354.965 7.75391 355 9.00781 355 10.25C355 11.4922 354.965 12.7461 354.895 14.0117C354.895 14.8086 354.637 15.4883 354.121 16.0508C353.629 16.5898 353.02 16.8594 352.293 16.8594C350.488 16.9531 348.391 17 346 17C343.609 17 341.512 16.9531 339.707 16.8594C338.98 16.8594 338.359 16.5898 337.844 16.0508C337.352 15.4883 337.105 14.8086 337.105 14.0117C337.035 12.7461 337 11.4922 337 10.25C337 9.42969 337.047 8.17578 337.141 6.48828C337.141 5.69141 337.387 5.02344 337.879 4.48438C338.371 3.92188 338.98 3.64062 339.707 3.64062C341.418 3.54687 343.41 3.5 345.684 3.5H346H346.316C348.59 3.5 350.582 3.54687 352.293 3.64062C353.02 3.64062 353.629 3.92188 354.121 4.48438C354.637 5.02344 354.895 5.69141 354.895 6.48828ZM344.277 13.6953L349.375 10.25L344.277 6.76953V13.6953Z" fill="#9FAAAB"/>
<path d="M1119.24 17.18C1118.01 17.18 1116.94 16.91 1116.01 16.37C1115.09 15.83 1114.37 15.098 1113.85 14.174C1113.34 13.25 1113.08 12.212 1113.08 11.06C1113.08 9.896 1113.34 8.858 1113.85 7.946C1114.37 7.022 1115.09 6.29 1116.01 5.75C1116.94 5.21 1118.01 4.94 1119.24 4.94C1120.46 4.94 1121.53 5.21 1122.46 5.75C1123.38 6.29 1124.1 7.022 1124.62 7.946C1125.13 8.858 1125.39 9.896 1125.39 11.06C1125.39 12.212 1125.13 13.25 1124.62 14.174C1124.1 15.098 1123.38 15.83 1122.46 16.37C1121.53 16.91 1120.46 17.18 1119.24 17.18ZM1119.24 16.01C1120.21 16.01 1121.06 15.794 1121.79 15.362C1122.52 14.918 1123.09 14.324 1123.5 13.58C1123.91 12.824 1124.11 11.984 1124.11 11.06C1124.11 10.136 1123.91 9.302 1123.5 8.558C1123.09 7.802 1122.52 7.208 1121.79 6.776C1121.06 6.332 1120.21 6.11 1119.24 6.11C1118.28 6.11 1117.42 6.332 1116.68 6.776C1115.95 7.208 1115.38 7.802 1114.97 8.558C1114.56 9.302 1114.36 10.136 1114.36 11.06C1114.36 11.984 1114.56 12.824 1114.97 13.58C1115.38 14.324 1115.95 14.918 1116.68 15.362C1117.42 15.794 1118.28 16.01 1119.24 16.01ZM1119.36 14.426C1118.34 14.426 1117.54 14.132 1116.95 13.544C1116.37 12.944 1116.09 12.128 1116.09 11.096C1116.09 10.064 1116.37 9.254 1116.95 8.666C1117.54 8.066 1118.34 7.766 1119.36 7.766C1120.07 7.766 1120.66 7.922 1121.13 8.234C1121.59 8.534 1121.94 8.948 1122.17 9.476L1121.13 9.998C1120.97 9.614 1120.75 9.326 1120.46 9.134C1120.17 8.942 1119.8 8.846 1119.34 8.846C1118.71 8.846 1118.2 9.044 1117.83 9.44C1117.47 9.836 1117.29 10.388 1117.29 11.096C1117.29 11.804 1117.47 12.356 1117.83 12.752C1118.2 13.148 1118.71 13.346 1119.34 13.346C1119.82 13.346 1120.22 13.25 1120.53 13.058C1120.86 12.854 1121.1 12.548 1121.25 12.14L1122.24 12.536C1122.01 13.124 1121.66 13.586 1121.18 13.922C1120.7 14.258 1120.09 14.426 1119.36 14.426ZM1127.95 17V15.83C1129.14 14.954 1130.13 14.186 1130.92 13.526C1131.73 12.866 1132.37 12.266 1132.85 11.726C1133.33 11.186 1133.67 10.676 1133.88 10.196C1134.08 9.704 1134.18 9.194 1134.18 8.666C1134.18 7.958 1133.95 7.388 1133.5 6.956C1133.05 6.512 1132.44 6.29 1131.66 6.29C1130.85 6.29 1130.19 6.56 1129.7 7.1C1129.21 7.628 1128.92 8.336 1128.84 9.224L1127.58 8.468C1127.68 7.772 1127.91 7.16 1128.24 6.632C1128.59 6.104 1129.05 5.69 1129.63 5.39C1130.22 5.09 1130.91 4.94 1131.72 4.94C1132.33 4.94 1132.87 5.03 1133.35 5.21C1133.85 5.39 1134.27 5.648 1134.61 5.984C1134.96 6.308 1135.23 6.698 1135.41 7.154C1135.6 7.61 1135.69 8.114 1135.69 8.666C1135.69 9.41 1135.51 10.142 1135.15 10.862C1134.79 11.57 1134.2 12.314 1133.37 13.094C1132.54 13.874 1131.42 14.738 1130.01 15.686V15.704C1130.14 15.692 1130.32 15.686 1130.55 15.686C1130.79 15.674 1131.02 15.668 1131.25 15.668C1131.49 15.656 1131.67 15.65 1131.79 15.65H1135.95V17H1127.95ZM1142.71 17.18C1141.37 17.18 1140.3 16.658 1139.49 15.614C1138.69 14.57 1138.29 13.052 1138.29 11.06C1138.29 9.068 1138.69 7.55 1139.49 6.506C1140.3 5.462 1141.37 4.94 1142.71 4.94C1144.07 4.94 1145.14 5.462 1145.94 6.506C1146.74 7.55 1147.14 9.068 1147.14 11.06C1147.14 13.052 1146.74 14.57 1145.94 15.614C1145.14 16.658 1144.07 17.18 1142.71 17.18ZM1142.71 15.884C1143.35 15.884 1143.88 15.704 1144.32 15.344C1144.76 14.972 1145.09 14.426 1145.31 13.706C1145.53 12.986 1145.65 12.104 1145.65 11.06C1145.65 10.016 1145.53 9.134 1145.31 8.414C1145.09 7.694 1144.76 7.154 1144.32 6.794C1143.88 6.422 1143.35 6.236 1142.71 6.236C1142.08 6.236 1141.54 6.422 1141.09 6.794C1140.66 7.154 1140.33 7.694 1140.1 8.414C1139.89 9.134 1139.78 10.016 1139.78 11.06C1139.78 12.104 1139.89 12.986 1140.1 13.706C1140.33 14.426 1140.66 14.972 1141.09 15.344C1141.54 15.704 1142.08 15.884 1142.71 15.884ZM1149.64 17V15.83C1150.83 14.954 1151.82 14.186 1152.61 13.526C1153.42 12.866 1154.06 12.266 1154.54 11.726C1155.02 11.186 1155.36 10.676 1155.57 10.196C1155.77 9.704 1155.87 9.194 1155.87 8.666C1155.87 7.958 1155.64 7.388 1155.19 6.956C1154.74 6.512 1154.13 6.29 1153.35 6.29C1152.54 6.29 1151.88 6.56 1151.39 7.1C1150.9 7.628 1150.61 8.336 1150.53 9.224L1149.27 8.468C1149.37 7.772 1149.6 7.16 1149.93 6.632C1150.28 6.104 1150.74 5.69 1151.32 5.39C1151.91 5.09 1152.6 4.94 1153.41 4.94C1154.02 4.94 1154.56 5.03 1155.04 5.21C1155.54 5.39 1155.96 5.648 1156.3 5.984C1156.65 6.308 1156.92 6.698 1157.1 7.154C1157.29 7.61 1157.38 8.114 1157.38 8.666C1157.38 9.41 1157.2 10.142 1156.84 10.862C1156.48 11.57 1155.89 12.314 1155.06 13.094C1154.23 13.874 1153.11 14.738 1151.7 15.686V15.704C1151.83 15.692 1152.01 15.686 1152.24 15.686C1152.48 15.674 1152.71 15.668 1152.94 15.668C1153.18 15.656 1153.36 15.65 1153.48 15.65H1157.64V17H1149.64ZM1160.14 17V15.83C1161.33 14.954 1162.32 14.186 1163.11 13.526C1163.91 12.866 1164.55 12.266 1165.03 11.726C1165.51 11.186 1165.86 10.676 1166.06 10.196C1166.26 9.704 1166.37 9.194 1166.37 8.666C1166.37 7.958 1166.14 7.388 1165.68 6.956C1165.24 6.512 1164.63 6.29 1163.85 6.29C1163.03 6.29 1162.38 6.56 1161.88 7.1C1161.39 7.628 1161.1 8.336 1161.02 9.224L1159.76 8.468C1159.87 7.772 1160.09 7.16 1160.43 6.632C1160.77 6.104 1161.24 5.69 1161.81 5.39C1162.4 5.09 1163.1 4.94 1163.9 4.94C1164.51 4.94 1165.06 5.03 1165.54 5.21C1166.03 5.39 1166.45 5.648 1166.8 5.984C1167.15 6.308 1167.41 6.698 1167.59 7.154C1167.78 7.61 1167.88 8.114 1167.88 8.666C1167.88 9.41 1167.7 10.142 1167.34 10.862C1166.98 11.57 1166.38 12.314 1165.56 13.094C1164.73 13.874 1163.61 14.738 1162.19 15.686V15.704C1162.32 15.692 1162.5 15.686 1162.73 15.686C1162.97 15.674 1163.2 15.668 1163.43 15.668C1163.67 15.656 1163.85 15.65 1163.97 15.65H1168.13V17H1160.14ZM1171.69 14.84C1171.98 14.84 1172.22 14.918 1172.41 15.074C1172.62 15.218 1172.77 15.422 1172.88 15.686C1172.99 15.938 1173.04 16.238 1173.04 16.586C1173.04 16.982 1172.97 17.372 1172.83 17.756C1172.7 18.14 1172.49 18.494 1172.2 18.818C1171.91 19.142 1171.54 19.412 1171.08 19.628L1170.33 18.926C1170.65 18.818 1170.93 18.668 1171.17 18.476C1171.42 18.284 1171.63 18.068 1171.78 17.828C1171.94 17.588 1172.04 17.342 1172.09 17.09L1172.02 17.054C1171.97 17.09 1171.91 17.12 1171.84 17.144C1171.77 17.168 1171.66 17.18 1171.51 17.18C1171.37 17.18 1171.22 17.138 1171.06 17.054C1170.92 16.97 1170.79 16.85 1170.69 16.694C1170.58 16.526 1170.52 16.31 1170.52 16.046C1170.52 15.83 1170.58 15.632 1170.69 15.452C1170.79 15.26 1170.93 15.11 1171.1 15.002C1171.28 14.894 1171.48 14.84 1171.69 14.84ZM1186.35 5.12C1187.16 5.12 1187.85 5.27 1188.44 5.57C1189.04 5.858 1189.51 6.272 1189.85 6.812C1190.18 7.352 1190.35 7.994 1190.35 8.738C1190.35 9.482 1190.18 10.124 1189.85 10.664C1189.51 11.204 1189.04 11.624 1188.44 11.924C1187.85 12.212 1187.16 12.356 1186.35 12.356H1183.6V17H1182.16V5.12H1186.35ZM1186.14 11.006C1187.07 11.006 1187.76 10.814 1188.19 10.43C1188.62 10.034 1188.84 9.47 1188.84 8.738C1188.84 7.994 1188.62 7.43 1188.19 7.046C1187.76 6.662 1187.07 6.47 1186.14 6.47H1183.6V11.006H1186.14ZM1196.44 7.82C1197.3 7.82 1198.05 8.006 1198.69 8.378C1199.35 8.75 1199.87 9.29 1200.24 9.998C1200.61 10.694 1200.8 11.528 1200.8 12.5C1200.8 13.472 1200.61 14.312 1200.24 15.02C1199.87 15.716 1199.35 16.25 1198.69 16.622C1198.05 16.994 1197.3 17.18 1196.44 17.18C1195.6 17.18 1194.85 16.994 1194.19 16.622C1193.53 16.25 1193.02 15.716 1192.65 15.02C1192.27 14.312 1192.09 13.472 1192.09 12.5C1192.09 11.528 1192.27 10.694 1192.65 9.998C1193.02 9.29 1193.53 8.75 1194.19 8.378C1194.85 8.006 1195.6 7.82 1196.44 7.82ZM1196.44 9.062C1195.83 9.062 1195.31 9.2 1194.88 9.476C1194.45 9.752 1194.11 10.148 1193.87 10.664C1193.64 11.168 1193.53 11.78 1193.53 12.5C1193.53 13.208 1193.64 13.82 1193.87 14.336C1194.11 14.852 1194.45 15.248 1194.88 15.524C1195.31 15.8 1195.83 15.938 1196.44 15.938C1197.06 15.938 1197.58 15.8 1198.01 15.524C1198.44 15.248 1198.77 14.852 1199 14.336C1199.24 13.82 1199.36 13.208 1199.36 12.5C1199.36 11.78 1199.24 11.168 1199 10.664C1198.77 10.148 1198.44 9.752 1198.01 9.476C1197.58 9.2 1197.06 9.062 1196.44 9.062ZM1203.51 17V8H1204.68L1204.88 9.476C1205.13 8.924 1205.5 8.51 1205.98 8.234C1206.47 7.958 1207.06 7.82 1207.76 7.82C1207.92 7.82 1208.08 7.832 1208.26 7.856C1208.46 7.88 1208.62 7.928 1208.75 8L1208.5 9.314C1208.37 9.266 1208.22 9.23 1208.07 9.206C1207.91 9.182 1207.69 9.17 1207.4 9.17C1207.03 9.17 1206.65 9.278 1206.27 9.494C1205.89 9.71 1205.58 10.04 1205.33 10.484C1205.08 10.916 1204.95 11.468 1204.95 12.14V17H1203.51ZM1212.44 5.444V14.516C1212.44 14.96 1212.56 15.29 1212.82 15.506C1213.07 15.722 1213.39 15.83 1213.79 15.83C1214.14 15.83 1214.44 15.77 1214.69 15.65C1214.94 15.53 1215.17 15.368 1215.37 15.164L1215.88 16.37C1215.6 16.622 1215.27 16.82 1214.89 16.964C1214.51 17.108 1214.08 17.18 1213.59 17.18C1213.13 17.18 1212.71 17.102 1212.31 16.946C1211.92 16.778 1211.6 16.52 1211.36 16.172C1211.13 15.812 1211.01 15.344 1211 14.768V5.84L1212.44 5.444ZM1215.71 8V9.242H1209.2V8H1215.71ZM1221.16 3.77C1221.47 3.77 1221.76 3.806 1222.04 3.878C1222.32 3.95 1222.53 4.052 1222.69 4.184L1222.31 5.354C1222.17 5.258 1222.01 5.192 1221.84 5.156C1221.67 5.108 1221.49 5.084 1221.28 5.084C1220.77 5.084 1220.37 5.21 1220.08 5.462C1219.79 5.702 1219.65 6.092 1219.65 6.632V8V8.468V17H1218.21V6.488C1218.21 6.092 1218.27 5.726 1218.39 5.39C1218.51 5.054 1218.69 4.766 1218.93 4.526C1219.18 4.286 1219.49 4.1 1219.86 3.968C1220.23 3.836 1220.67 3.77 1221.16 3.77ZM1222.65 8V9.242H1216.41V8H1222.65ZM1228.05 7.82C1228.9 7.82 1229.65 8.006 1230.3 8.378C1230.96 8.75 1231.48 9.29 1231.85 9.998C1232.22 10.694 1232.41 11.528 1232.41 12.5C1232.41 13.472 1232.22 14.312 1231.85 15.02C1231.48 15.716 1230.96 16.25 1230.3 16.622C1229.65 16.994 1228.9 17.18 1228.05 17.18C1227.21 17.18 1226.46 16.994 1225.8 16.622C1225.14 16.25 1224.62 15.716 1224.25 15.02C1223.88 14.312 1223.69 13.472 1223.69 12.5C1223.69 11.528 1223.88 10.694 1224.25 9.998C1224.62 9.29 1225.14 8.75 1225.8 8.378C1226.46 8.006 1227.21 7.82 1228.05 7.82ZM1228.05 9.062C1227.44 9.062 1226.92 9.2 1226.48 9.476C1226.05 9.752 1225.72 10.148 1225.48 10.664C1225.25 11.168 1225.13 11.78 1225.13 12.5C1225.13 13.208 1225.25 13.82 1225.48 14.336C1225.72 14.852 1226.05 15.248 1226.48 15.524C1226.92 15.8 1227.44 15.938 1228.05 15.938C1228.66 15.938 1229.18 15.8 1229.62 15.524C1230.05 15.248 1230.38 14.852 1230.61 14.336C1230.85 13.82 1230.97 13.208 1230.97 12.5C1230.97 11.78 1230.85 11.168 1230.61 10.664C1230.38 10.148 1230.05 9.752 1229.62 9.476C1229.18 9.2 1228.66 9.062 1228.05 9.062ZM1245.66 17.18C1245.16 17.18 1244.69 17.09 1244.26 16.91C1243.83 16.73 1243.45 16.478 1243.14 16.154C1242.83 15.83 1242.6 15.464 1242.44 15.056L1242.64 14.804L1242.51 17H1241.25V3.86H1242.69V10.034L1242.51 9.764C1242.75 9.2 1243.15 8.738 1243.72 8.378C1244.29 8.006 1244.95 7.82 1245.68 7.82C1246.42 7.82 1247.11 8.006 1247.73 8.378C1248.36 8.75 1248.85 9.284 1249.23 9.98C1249.6 10.676 1249.78 11.516 1249.78 12.5C1249.78 13.472 1249.59 14.312 1249.21 15.02C1248.84 15.716 1248.34 16.25 1247.71 16.622C1247.09 16.994 1246.41 17.18 1245.66 17.18ZM1245.52 15.92C1246.41 15.92 1247.1 15.608 1247.59 14.984C1248.09 14.36 1248.34 13.532 1248.34 12.5C1248.34 11.468 1248.1 10.64 1247.61 10.016C1247.11 9.392 1246.42 9.08 1245.54 9.08C1244.97 9.08 1244.47 9.224 1244.04 9.512C1243.62 9.8 1243.29 10.202 1243.05 10.718C1242.81 11.234 1242.69 11.84 1242.69 12.536C1242.69 13.22 1242.81 13.82 1243.03 14.336C1243.27 14.84 1243.6 15.23 1244.02 15.506C1244.46 15.782 1244.95 15.92 1245.52 15.92ZM1259.67 8L1255.44 18.512C1255.21 19.1 1254.96 19.562 1254.69 19.898C1254.42 20.246 1254.12 20.492 1253.79 20.636C1253.46 20.792 1253.08 20.87 1252.65 20.87C1252.24 20.87 1251.87 20.81 1251.52 20.69C1251.18 20.582 1250.88 20.432 1250.62 20.24L1251.01 18.98C1251.25 19.196 1251.51 19.352 1251.77 19.448C1252.05 19.556 1252.32 19.61 1252.58 19.61C1252.89 19.61 1253.19 19.514 1253.46 19.322C1253.74 19.13 1253.99 18.74 1254.22 18.152L1254.69 16.982L1253.79 14.84L1250.92 8H1252.56L1254.81 13.868L1255.37 15.47L1256.02 13.688L1258.12 8H1259.67ZM1276.16 5.12V6.776H1272.09V17H1270.17V6.776H1266.1V5.12H1276.16ZM1280.28 17.18C1279.38 17.18 1278.58 16.994 1277.9 16.622C1277.22 16.25 1276.68 15.716 1276.3 15.02C1275.93 14.312 1275.74 13.472 1275.74 12.5C1275.74 11.528 1275.93 10.694 1276.3 9.998C1276.68 9.29 1277.21 8.75 1277.88 8.378C1278.55 8.006 1279.32 7.82 1280.17 7.82C1281.04 7.82 1281.79 8 1282.4 8.36C1283.01 8.72 1283.48 9.212 1283.8 9.836C1284.13 10.46 1284.29 11.168 1284.29 11.96C1284.29 12.176 1284.28 12.38 1284.27 12.572C1284.26 12.764 1284.24 12.932 1284.22 13.076H1276.98V11.6H1283.37L1282.42 11.888C1282.42 11.072 1282.21 10.448 1281.81 10.016C1281.4 9.572 1280.84 9.35 1280.13 9.35C1279.62 9.35 1279.17 9.47 1278.78 9.71C1278.4 9.95 1278.1 10.31 1277.9 10.79C1277.7 11.258 1277.59 11.834 1277.59 12.518C1277.59 13.19 1277.7 13.76 1277.92 14.228C1278.13 14.696 1278.44 15.05 1278.84 15.29C1279.23 15.53 1279.7 15.65 1280.24 15.65C1280.84 15.65 1281.33 15.536 1281.7 15.308C1282.07 15.08 1282.36 14.762 1282.58 14.354L1284.11 15.074C1283.89 15.506 1283.6 15.884 1283.23 16.208C1282.87 16.52 1282.44 16.76 1281.93 16.928C1281.43 17.096 1280.88 17.18 1280.28 17.18ZM1286.72 17V8H1288.43L1288.52 9.512C1288.83 8.936 1289.25 8.51 1289.76 8.234C1290.29 7.958 1290.85 7.82 1291.44 7.82C1292.09 7.82 1292.68 7.97 1293.22 8.27C1293.77 8.558 1294.19 8.996 1294.46 9.584C1294.65 9.188 1294.92 8.858 1295.25 8.594C1295.59 8.33 1295.96 8.138 1296.37 8.018C1296.78 7.886 1297.18 7.82 1297.58 7.82C1298.15 7.82 1298.69 7.94 1299.2 8.18C1299.7 8.42 1300.11 8.786 1300.42 9.278C1300.73 9.77 1300.89 10.4 1300.89 11.168V17H1298.96V11.474C1298.96 10.742 1298.79 10.214 1298.44 9.89C1298.09 9.566 1297.65 9.404 1297.11 9.404C1296.69 9.404 1296.3 9.506 1295.94 9.71C1295.59 9.914 1295.31 10.22 1295.09 10.628C1294.88 11.024 1294.77 11.516 1294.77 12.104V17H1292.84V11.474C1292.84 10.742 1292.67 10.214 1292.32 9.89C1291.97 9.566 1291.53 9.404 1290.99 9.404C1290.63 9.404 1290.27 9.5 1289.91 9.692C1289.55 9.884 1289.25 10.184 1289.01 10.592C1288.77 11 1288.65 11.54 1288.65 12.212V17H1286.72ZM1303.81 20.78V8H1305.52L1305.66 10.52L1305.41 10.214C1305.55 9.746 1305.78 9.332 1306.08 8.972C1306.38 8.612 1306.75 8.33 1307.19 8.126C1307.65 7.922 1308.15 7.82 1308.69 7.82C1309.42 7.82 1310.08 8.006 1310.68 8.378C1311.28 8.75 1311.76 9.284 1312.11 9.98C1312.45 10.664 1312.63 11.498 1312.63 12.482C1312.63 13.466 1312.45 14.312 1312.09 15.02C1311.74 15.716 1311.26 16.25 1310.65 16.622C1310.05 16.994 1309.38 17.18 1308.63 17.18C1307.86 17.18 1307.21 16.982 1306.67 16.586C1306.13 16.178 1305.75 15.662 1305.52 15.038L1305.73 14.732V20.78H1303.81ZM1308.22 15.614C1309 15.614 1309.6 15.338 1310.04 14.786C1310.48 14.234 1310.7 13.472 1310.7 12.5C1310.7 11.528 1310.49 10.766 1310.05 10.214C1309.62 9.65 1309.02 9.368 1308.25 9.368C1307.75 9.368 1307.31 9.5 1306.92 9.764C1306.55 10.016 1306.26 10.376 1306.04 10.844C1305.84 11.3 1305.73 11.852 1305.73 12.5C1305.73 13.136 1305.84 13.688 1306.04 14.156C1306.24 14.624 1306.53 14.984 1306.9 15.236C1307.28 15.488 1307.71 15.614 1308.22 15.614ZM1316.97 3.95V14.48C1316.97 14.924 1317.04 15.23 1317.2 15.398C1317.36 15.566 1317.61 15.65 1317.97 15.65C1318.19 15.65 1318.37 15.638 1318.51 15.614C1318.67 15.578 1318.86 15.518 1319.09 15.434L1318.87 16.874C1318.67 16.97 1318.44 17.042 1318.17 17.09C1317.91 17.15 1317.64 17.18 1317.38 17.18C1316.58 17.18 1315.98 16.976 1315.6 16.568C1315.23 16.148 1315.04 15.506 1315.04 14.642V3.95H1316.97ZM1325.94 11.222C1325.94 10.622 1325.77 10.16 1325.43 9.836C1325.11 9.5 1324.66 9.332 1324.08 9.332C1323.54 9.332 1323.08 9.458 1322.7 9.71C1322.31 9.962 1322.03 10.37 1321.85 10.934L1320.23 10.25C1320.46 9.518 1320.9 8.93 1321.56 8.486C1322.24 8.042 1323.1 7.82 1324.16 7.82C1324.88 7.82 1325.51 7.94 1326.06 8.18C1326.62 8.408 1327.05 8.756 1327.36 9.224C1327.68 9.692 1327.85 10.292 1327.85 11.024V15.038C1327.85 15.482 1328.07 15.704 1328.51 15.704C1328.73 15.704 1328.94 15.674 1329.14 15.614L1329.03 16.946C1328.76 17.078 1328.41 17.144 1327.99 17.144C1327.61 17.144 1327.26 17.078 1326.95 16.946C1326.65 16.802 1326.41 16.592 1326.23 16.316C1326.06 16.028 1325.97 15.674 1325.97 15.254V15.128L1326.37 15.11C1326.26 15.578 1326.04 15.968 1325.7 16.28C1325.37 16.58 1324.98 16.808 1324.53 16.964C1324.09 17.108 1323.64 17.18 1323.18 17.18C1322.62 17.18 1322.11 17.09 1321.65 16.91C1321.21 16.73 1320.86 16.46 1320.59 16.1C1320.34 15.728 1320.21 15.272 1320.21 14.732C1320.21 14.06 1320.43 13.508 1320.86 13.076C1321.31 12.644 1321.93 12.35 1322.73 12.194L1326.23 11.51L1326.21 12.86L1323.67 13.382C1323.17 13.478 1322.79 13.616 1322.54 13.796C1322.28 13.976 1322.16 14.24 1322.16 14.588C1322.16 14.924 1322.28 15.194 1322.54 15.398C1322.8 15.59 1323.15 15.686 1323.58 15.686C1323.88 15.686 1324.17 15.65 1324.44 15.578C1324.73 15.506 1324.99 15.392 1325.22 15.236C1325.45 15.068 1325.62 14.858 1325.74 14.606C1325.87 14.342 1325.94 14.03 1325.94 13.67V11.222ZM1333.28 5.354V14.3C1333.28 14.744 1333.39 15.068 1333.62 15.272C1333.86 15.476 1334.18 15.578 1334.57 15.578C1334.9 15.578 1335.18 15.53 1335.42 15.434C1335.66 15.326 1335.88 15.182 1336.09 15.002L1336.52 16.406C1336.24 16.646 1335.9 16.838 1335.49 16.982C1335.1 17.114 1334.65 17.18 1334.16 17.18C1333.64 17.18 1333.17 17.096 1332.74 16.928C1332.31 16.76 1331.97 16.49 1331.73 16.118C1331.49 15.734 1331.36 15.236 1331.35 14.624V5.894L1333.28 5.354ZM1336.37 8V9.512H1329.62V8H1336.37ZM1342.24 17.18C1341.34 17.18 1340.55 16.994 1339.86 16.622C1339.18 16.25 1338.65 15.716 1338.26 15.02C1337.89 14.312 1337.7 13.472 1337.7 12.5C1337.7 11.528 1337.89 10.694 1338.26 9.998C1338.65 9.29 1339.17 8.75 1339.85 8.378C1340.52 8.006 1341.28 7.82 1342.13 7.82C1343.01 7.82 1343.75 8 1344.36 8.36C1344.98 8.72 1345.44 9.212 1345.77 9.836C1346.09 10.46 1346.25 11.168 1346.25 11.96C1346.25 12.176 1346.25 12.38 1346.24 12.572C1346.22 12.764 1346.21 12.932 1346.18 13.076H1338.95V11.6H1345.34L1344.38 11.888C1344.38 11.072 1344.18 10.448 1343.77 10.016C1343.36 9.572 1342.8 9.35 1342.1 9.35C1341.58 9.35 1341.13 9.47 1340.75 9.71C1340.36 9.95 1340.07 10.31 1339.86 10.79C1339.66 11.258 1339.56 11.834 1339.56 12.518C1339.56 13.19 1339.67 13.76 1339.88 14.228C1340.1 14.696 1340.4 15.05 1340.8 15.29C1341.2 15.53 1341.66 15.65 1342.2 15.65C1342.8 15.65 1343.29 15.536 1343.66 15.308C1344.03 15.08 1344.33 14.762 1344.54 14.354L1346.07 15.074C1345.86 15.506 1345.56 15.884 1345.19 16.208C1344.83 16.52 1344.4 16.76 1343.9 16.928C1343.39 17.096 1342.84 17.18 1342.24 17.18ZM1352.11 17.18C1351.21 17.18 1350.38 17.006 1349.64 16.658C1348.9 16.31 1348.31 15.818 1347.88 15.182L1349.21 14.03C1349.47 14.522 1349.85 14.918 1350.34 15.218C1350.85 15.506 1351.45 15.65 1352.14 15.65C1352.69 15.65 1353.13 15.554 1353.46 15.362C1353.78 15.17 1353.94 14.9 1353.94 14.552C1353.94 14.324 1353.86 14.126 1353.71 13.958C1353.56 13.778 1353.28 13.64 1352.86 13.544L1350.97 13.148C1350.01 12.956 1349.33 12.65 1348.92 12.23C1348.51 11.798 1348.31 11.252 1348.31 10.592C1348.31 10.1 1348.45 9.644 1348.74 9.224C1349.03 8.804 1349.45 8.468 1350 8.216C1350.56 7.952 1351.24 7.82 1352.02 7.82C1352.92 7.82 1353.68 7.982 1354.32 8.306C1354.96 8.618 1355.44 9.068 1355.78 9.656L1354.45 10.772C1354.22 10.292 1353.88 9.938 1353.44 9.71C1352.99 9.47 1352.53 9.35 1352.05 9.35C1351.67 9.35 1351.34 9.398 1351.06 9.494C1350.79 9.59 1350.58 9.722 1350.43 9.89C1350.29 10.058 1350.22 10.256 1350.22 10.484C1350.22 10.724 1350.31 10.934 1350.49 11.114C1350.67 11.294 1350.99 11.432 1351.46 11.528L1353.51 11.96C1354.37 12.128 1354.98 12.416 1355.33 12.824C1355.69 13.22 1355.87 13.706 1355.87 14.282C1355.87 14.858 1355.72 15.368 1355.42 15.812C1355.12 16.244 1354.69 16.58 1354.12 16.82C1353.56 17.06 1352.89 17.18 1352.11 17.18ZM1365.59 5.12V12.788C1365.59 14.168 1365.21 15.248 1364.44 16.028C1363.68 16.796 1362.63 17.18 1361.27 17.18C1360.3 17.18 1359.51 17 1358.9 16.64C1358.28 16.28 1357.86 15.776 1357.62 15.128C1357.38 14.468 1357.34 13.706 1357.49 12.842L1359.35 12.5C1359.2 13.532 1359.28 14.294 1359.58 14.786C1359.88 15.266 1360.44 15.506 1361.27 15.506C1362.17 15.506 1362.79 15.248 1363.13 14.732C1363.47 14.204 1363.65 13.436 1363.65 12.428V5.12H1365.59ZM1371.77 17.18C1371.18 17.18 1370.64 17.072 1370.13 16.856C1369.64 16.64 1369.24 16.292 1368.94 15.812C1368.64 15.332 1368.49 14.708 1368.49 13.94V8H1370.42V13.454C1370.42 14.27 1370.59 14.834 1370.94 15.146C1371.29 15.446 1371.78 15.596 1372.4 15.596C1372.7 15.596 1372.99 15.548 1373.26 15.452C1373.55 15.344 1373.81 15.182 1374.04 14.966C1374.27 14.738 1374.44 14.45 1374.56 14.102C1374.69 13.754 1374.76 13.346 1374.76 12.878V8H1376.68V17H1374.99L1374.9 15.542C1374.59 16.106 1374.17 16.52 1373.64 16.784C1373.11 17.048 1372.49 17.18 1371.77 17.18ZM1379.69 17V8H1381.4L1381.53 10.34L1381.28 10.088C1381.45 9.572 1381.69 9.146 1382 8.81C1382.32 8.462 1382.7 8.21 1383.13 8.054C1383.58 7.898 1384.04 7.82 1384.54 7.82C1385.17 7.82 1385.74 7.946 1386.25 8.198C1386.76 8.438 1387.17 8.804 1387.47 9.296C1387.77 9.788 1387.92 10.412 1387.92 11.168V17H1385.99V11.762C1385.99 10.874 1385.81 10.262 1385.44 9.926C1385.08 9.578 1384.62 9.404 1384.07 9.404C1383.67 9.404 1383.29 9.5 1382.92 9.692C1382.54 9.872 1382.23 10.166 1381.98 10.574C1381.74 10.982 1381.62 11.528 1381.62 12.212V17H1379.69ZM1398.76 6.11L1399.06 7.622C1399.03 7.622 1398.99 7.622 1398.96 7.622C1398.92 7.61 1398.88 7.604 1398.85 7.604C1398.27 7.604 1397.83 7.73 1397.53 7.982C1397.23 8.222 1397.08 8.576 1397.08 9.044L1396.15 8.612C1396.15 8.132 1396.25 7.706 1396.45 7.334C1396.66 6.95 1396.95 6.65 1397.32 6.434C1397.7 6.218 1398.13 6.11 1398.61 6.11C1398.64 6.11 1398.66 6.11 1398.69 6.11C1398.71 6.11 1398.73 6.11 1398.76 6.11ZM1395.91 15.596C1396.83 15.596 1397.53 15.8 1398.04 16.208C1398.54 16.604 1398.79 17.156 1398.79 17.864C1398.79 18.488 1398.6 19.022 1398.2 19.466C1397.8 19.922 1397.26 20.27 1396.58 20.51C1395.91 20.75 1395.13 20.87 1394.26 20.87C1392.78 20.87 1391.69 20.642 1390.98 20.186C1390.27 19.73 1389.92 19.16 1389.92 18.476C1389.92 17.996 1390.09 17.576 1390.42 17.216C1390.77 16.856 1391.35 16.652 1392.17 16.604L1392.06 16.892C1391.56 16.784 1391.15 16.592 1390.84 16.316C1390.54 16.028 1390.39 15.626 1390.39 15.11C1390.39 14.594 1390.59 14.156 1390.98 13.796C1391.38 13.436 1391.94 13.226 1392.66 13.166L1393.66 13.652H1393.45C1392.9 13.7 1392.51 13.826 1392.28 14.03C1392.05 14.234 1391.94 14.462 1391.94 14.714C1391.94 15.014 1392.04 15.236 1392.26 15.38C1392.49 15.524 1392.81 15.596 1393.21 15.596H1395.91ZM1394.26 19.43C1394.92 19.43 1395.46 19.364 1395.88 19.232C1396.31 19.112 1396.63 18.95 1396.83 18.746C1397.05 18.554 1397.16 18.338 1397.16 18.098C1397.16 17.822 1397.04 17.6 1396.81 17.432C1396.6 17.264 1396.2 17.18 1395.63 17.18H1392.73C1392.39 17.18 1392.11 17.264 1391.88 17.432C1391.65 17.612 1391.54 17.852 1391.54 18.152C1391.54 18.548 1391.78 18.86 1392.26 19.088C1392.74 19.316 1393.41 19.43 1394.26 19.43ZM1394.19 7.82C1394.98 7.82 1395.66 7.946 1396.24 8.198C1396.83 8.45 1397.28 8.804 1397.59 9.26C1397.91 9.716 1398.07 10.25 1398.07 10.862C1398.07 11.474 1397.91 12.008 1397.59 12.464C1397.28 12.92 1396.83 13.274 1396.24 13.526C1395.66 13.778 1394.98 13.904 1394.19 13.904C1392.94 13.904 1391.98 13.628 1391.31 13.076C1390.65 12.512 1390.32 11.774 1390.32 10.862C1390.32 10.25 1390.48 9.716 1390.8 9.26C1391.13 8.804 1391.58 8.45 1392.15 8.198C1392.74 7.946 1393.42 7.82 1394.19 7.82ZM1394.19 9.17C1393.63 9.17 1393.17 9.326 1392.8 9.638C1392.44 9.938 1392.26 10.346 1392.26 10.862C1392.26 11.378 1392.44 11.792 1392.8 12.104C1393.17 12.416 1393.63 12.572 1394.19 12.572C1394.75 12.572 1395.21 12.416 1395.57 12.104C1395.94 11.792 1396.13 11.378 1396.13 10.862C1396.13 10.346 1395.94 9.938 1395.57 9.638C1395.21 9.326 1394.75 9.17 1394.19 9.17ZM1402.43 3.95V14.48C1402.43 14.924 1402.51 15.23 1402.66 15.398C1402.82 15.566 1403.08 15.65 1403.44 15.65C1403.65 15.65 1403.83 15.638 1403.98 15.614C1404.13 15.578 1404.33 15.518 1404.55 15.434L1404.34 16.874C1404.13 16.97 1403.9 17.042 1403.64 17.09C1403.37 17.15 1403.11 17.18 1402.84 17.18C1402.04 17.18 1401.45 16.976 1401.06 16.568C1400.69 16.148 1400.5 15.506 1400.5 14.642V3.95H1402.43ZM1410.13 17.18C1409.23 17.18 1408.43 16.994 1407.75 16.622C1407.07 16.25 1406.53 15.716 1406.15 15.02C1405.78 14.312 1405.59 13.472 1405.59 12.5C1405.59 11.528 1405.78 10.694 1406.15 9.998C1406.53 9.29 1407.06 8.75 1407.73 8.378C1408.4 8.006 1409.17 7.82 1410.02 7.82C1410.89 7.82 1411.64 8 1412.25 8.36C1412.86 8.72 1413.33 9.212 1413.65 9.836C1413.98 10.46 1414.14 11.168 1414.14 11.96C1414.14 12.176 1414.13 12.38 1414.12 12.572C1414.11 12.764 1414.09 12.932 1414.07 13.076H1406.83V11.6H1413.22L1412.27 11.888C1412.27 11.072 1412.06 10.448 1411.66 10.016C1411.25 9.572 1410.69 9.35 1409.98 9.35C1409.47 9.35 1409.02 9.47 1408.63 9.71C1408.25 9.95 1407.95 10.31 1407.75 10.79C1407.55 11.258 1407.44 11.834 1407.44 12.518C1407.44 13.19 1407.55 13.76 1407.77 14.228C1407.98 14.696 1408.29 15.05 1408.69 15.29C1409.08 15.53 1409.55 15.65 1410.09 15.65C1410.69 15.65 1411.18 15.536 1411.55 15.308C1411.92 15.08 1412.21 14.762 1412.43 14.354L1413.96 15.074C1413.74 15.506 1413.45 15.884 1413.08 16.208C1412.72 16.52 1412.29 16.76 1411.78 16.928C1411.28 17.096 1410.73 17.18 1410.13 17.18ZM1417.54 14.57C1417.95 14.57 1418.28 14.69 1418.52 14.93C1418.77 15.158 1418.89 15.47 1418.89 15.866C1418.89 16.262 1418.77 16.58 1418.52 16.82C1418.28 17.06 1417.95 17.18 1417.54 17.18C1417.12 17.18 1416.79 17.06 1416.54 16.82C1416.3 16.58 1416.18 16.262 1416.18 15.866C1416.18 15.47 1416.3 15.158 1416.54 14.93C1416.79 14.69 1417.12 14.57 1417.54 14.57Z" fill="#303030"/>
<path d="M1265.56 19.25H1419.99V20.15H1265.56V19.25Z" fill="#303030"/>
</svg>
