<svg width="50" height="51" viewBox="0 0 50 51" fill="none" xmlns="http://www.w3.org/2000/svg">
<circle cx="25" cy="25.5" r="24.5" fill="#F4F4F0" stroke="#111111"/>
<path d="M12.8125 17.9844V33.0156H20.0746C20.7474 33.0156 25.3802 32.8791 25.3802 28.6484C25.3802 26.0046 23.5619 25.1059 22.6389 24.8394C23.3181 24.5193 24.6701 23.7572 24.6701 21.717C24.6701 20.5803 24.5076 17.9844 19.8715 17.9844H12.8125ZM29.3672 19.3811V20.7517H34.9783V19.3819L29.3672 19.3811ZM16.1129 20.5486H19.2109C19.5034 20.5486 21.4705 20.3934 21.4705 22.2752C21.4705 23.8839 20.0486 24.0529 19.4644 24.0529H16.1145L16.1129 20.5486ZM32.3125 21.9957C28.0688 21.9957 27.1832 25.6812 27.1832 27.2769C27.1832 32.0163 31.0686 32.5582 32.3125 32.5582C35.6673 32.5582 36.6187 30.388 37.0096 29.1814H34.5721C34.477 29.4926 33.7661 30.5017 32.4141 30.5017C30.1472 30.5017 29.9514 28.7305 29.9514 27.9375H37.1623C37.3086 25.1953 36.1085 21.9957 32.3125 21.9957ZM32.2361 24.0529C32.9121 24.0529 33.4581 24.2496 33.7856 24.6111C34.1122 24.9767 34.3535 25.5097 34.4193 26.2109H29.9506C29.9636 26.0176 30.0082 25.7949 30.0781 25.5504C30.148 25.3001 30.2561 25.0621 30.434 24.8394C30.6111 24.6209 30.8589 24.4307 31.1449 24.2812C31.4366 24.1285 31.7982 24.0529 32.2361 24.0529ZM16.1137 26.3125H19.6936C20.4045 26.3125 22.0799 26.4238 22.0799 28.4705C22.0799 30.4546 19.9698 30.4514 19.6424 30.4514H16.1129L16.1137 26.3125Z" fill="#111111"/>
</svg>
